<svg width="28" height="28" viewBox="0 0 28 28" fill="none" xmlns="http://www.w3.org/2000/svg">
<rect width="28" height="28" fill="#17181A"/>
<path d="M20.408 10.8888C20.408 9.23861 19.7329 7.65597 18.5312 6.48907C17.3294 5.32218 15.6995 4.66663 14 4.66663C12.3005 4.66663 10.6706 5.32218 9.46884 6.48907C8.2671 7.65597 7.59197 9.23861 7.59197 10.8888C7.59197 14.0935 6.75943 16.2876 5.82941 17.7389C5.04492 18.9631 4.65267 19.5752 4.66705 19.7459C4.68298 19.935 4.72423 20.0071 4.88114 20.1201C5.02284 20.2222 5.66165 20.2222 6.93927 20.2222H21.0607C22.3384 20.2222 22.9772 20.2222 23.1189 20.1201C23.2758 20.0071 23.317 19.935 23.333 19.7459C23.3473 19.5752 22.9551 18.9631 22.1706 17.7389C21.2406 16.2876 20.408 14.0935 20.408 10.8888Z" stroke="#999999" stroke-linecap="round" stroke-linejoin="round"/>
<path d="M17.2039 20.2221C17.2039 21.9404 15.7695 23.3333 13.9999 23.3333C12.2304 23.3333 10.7959 21.9404 10.7959 20.2221" stroke="#999999"/>
</svg>
