<svg width="28" height="28" viewBox="0 0 28 28" fill="none" xmlns="http://www.w3.org/2000/svg">
<rect width="28" height="28" fill="#17181A"/>
<path d="M11.2778 8.39996V12.6011C11.2778 13.1153 11.2778 13.3724 11.2155 13.6106C11.1602 13.8217 11.0694 14.0212 10.9471 14.2C10.8091 14.4017 10.617 14.5663 10.233 14.8955L6.87813 17.7711C6.49409 18.1003 6.30207 18.2649 6.16402 18.4666C6.0417 18.6454 5.95087 18.8449 5.89565 19.056C5.83334 19.2942 5.83334 19.5513 5.83334 20.0655V20.3466C5.83334 21.3921 5.83334 21.9148 6.03114 22.3141C6.20513 22.6653 6.48276 22.9509 6.82424 23.1298C7.21245 23.3333 7.72065 23.3333 8.73704 23.3333H19.263C20.2794 23.3333 20.7876 23.3333 21.1758 23.1298C21.5172 22.9509 21.7949 22.6653 21.9689 22.3141C22.1667 21.9148 22.1667 21.3921 22.1667 20.3466V20.0655C22.1667 19.5513 22.1667 19.2942 22.1044 19.056C22.0491 18.8449 21.9583 18.6454 21.836 18.4666C21.6979 18.2649 21.5059 18.1003 21.1219 17.7711L17.767 14.8955C17.383 14.5663 17.191 14.4017 17.0529 14.2C16.9306 14.0212 16.8398 13.8217 16.7845 13.6106C16.7222 13.3724 16.7222 13.1153 16.7222 12.6011V8.39996M10.6426 8.39996H17.3574C17.6115 8.39996 17.7386 8.39996 17.8356 8.3491C17.921 8.30436 17.9904 8.23296 18.0339 8.14516C18.0833 8.04533 18.0833 7.91465 18.0833 7.65329V5.41329C18.0833 5.15193 18.0833 5.02126 18.0339 4.92143C17.9904 4.83362 17.921 4.76223 17.8356 4.71749C17.7386 4.66663 17.6115 4.66663 17.3574 4.66663H10.6426C10.3885 4.66663 10.2614 4.66663 10.1644 4.71749C10.079 4.76223 10.0096 4.83362 9.96612 4.92143C9.91667 5.02126 9.91667 5.15193 9.91667 5.41329V7.65329C9.91667 7.91465 9.91667 8.04533 9.96612 8.14516C10.0096 8.23296 10.079 8.30436 10.1644 8.3491C10.2614 8.39996 10.3885 8.39996 10.6426 8.39996ZM8.10185 18.6666H19.8981C20.3198 18.6666 20.5306 18.6666 20.7059 18.7025C21.4258 18.8498 21.9886 19.4286 22.1318 20.1691C22.1667 20.3494 22.1667 20.5663 22.1667 21C22.1667 21.4336 22.1667 21.6505 22.1318 21.8308C21.9886 22.5713 21.4258 23.1501 20.7059 23.2974C20.5306 23.3333 20.3198 23.3333 19.8981 23.3333H8.10185C7.68022 23.3333 7.46941 23.3333 7.2941 23.2974C6.57418 23.1501 6.01141 22.5713 5.86821 21.8308C5.83334 21.6505 5.83334 21.4336 5.83334 21C5.83334 20.5663 5.83334 20.3494 5.86821 20.1691C6.01141 19.4286 6.57418 18.8498 7.2941 18.7025C7.46941 18.6666 7.68022 18.6666 8.10185 18.6666Z" stroke="white" stroke-linecap="round" stroke-linejoin="round"/>
</svg>
