<svg width="28" height="28" viewBox="0 0 28 28" fill="none" xmlns="http://www.w3.org/2000/svg">
<rect width="28" height="28" fill="#17181A"/>
<path d="M4.66667 12.9354C4.66667 12.3631 4.66667 12.0769 4.74344 11.8134C4.81144 11.5799 4.9232 11.3604 5.07321 11.1655C5.24257 10.9455 5.47765 10.7698 5.94781 10.4184L12.9813 5.16201C13.3457 4.88973 13.5278 4.75359 13.729 4.70126C13.9065 4.65508 14.0935 4.65508 14.271 4.70126C14.4722 4.75359 14.6544 4.88973 15.0187 5.16202L22.0522 10.4184C22.5224 10.7698 22.7574 10.9455 22.9268 11.1655C23.0768 11.3604 23.1886 11.5799 23.2566 11.8134C23.3333 12.0769 23.3333 12.3631 23.3333 12.9354V20.1446C23.3333 21.2608 23.3333 21.8188 23.1073 22.2451C22.9084 22.6201 22.5911 22.925 22.2009 23.1161C21.7572 23.3333 21.1764 23.3333 20.0148 23.3333H7.98519C6.8236 23.3333 6.2428 23.3333 5.79913 23.1161C5.40887 22.925 5.09158 22.6201 4.89273 22.2451C4.66667 21.8188 4.66667 21.2608 4.66667 20.1446V12.9354Z" stroke="#999999" stroke-linecap="round" stroke-linejoin="round"/>
</svg>
