<svg width="24" height="24" viewBox="0 0 24 24" fill="none" xmlns="http://www.w3.org/2000/svg">
<circle cx="12" cy="12" r="11.5" fill="#333333" stroke="#333333"/>
<path d="M10.2476 7.98057L10.0676 7.65164L10.0676 7.65164L10.2476 7.98057ZM8.37601 9.71808L8.69009 9.92296L8.37601 9.71808ZM7.52503 12.1541L7.89831 12.19L7.52503 12.1541ZM7.89567 14.7134L7.54802 14.854H7.54802L7.89567 14.7134ZM11.6839 17.8977L11.609 18.2652L11.6839 17.8977ZM14.2068 17.7707L14.0955 17.4126L14.2068 17.7707ZM16.6417 16.7026C16.7864 16.5544 16.7836 16.317 16.6354 16.1723C16.4872 16.0276 16.2498 16.0305 16.1051 16.1787L16.6417 16.7026ZM12.6979 6.97691C11.7798 6.97691 10.8763 7.20886 10.0676 7.65164L10.4277 8.3095C11.1267 7.92682 11.9064 7.72691 12.6979 7.72691L12.6979 6.97691ZM10.0676 7.65164C9.25885 8.09439 8.5702 8.73405 8.06193 9.51319L8.69009 9.92296C9.13163 9.24612 9.72869 8.6922 10.4277 8.3095L10.0676 7.65164ZM8.06193 9.51319C7.55369 10.2923 7.24129 11.187 7.15175 12.1182L7.89831 12.19C7.97634 11.3785 8.24852 10.5999 8.69009 9.92296L8.06193 9.51319ZM7.15175 12.1182C7.06221 13.0494 7.19822 13.989 7.54802 14.854L8.24332 14.5728C7.93889 13.82 7.82028 13.0015 7.89831 12.19L7.15175 12.1182ZM7.54802 14.854C7.89784 15.719 8.45092 16.4833 9.1591 17.0786L9.64169 16.5044C9.02832 15.9888 8.54774 15.3256 8.24332 14.5728L7.54802 14.854ZM9.1591 17.0786C9.86733 17.6739 10.7087 18.0817 11.609 18.2652L11.7587 17.5302C10.9822 17.372 10.255 17.02 9.64169 16.5044L9.1591 17.0786ZM11.609 18.2652C12.5093 18.4486 13.4399 18.4017 14.3181 18.1289L14.0955 17.4126C13.3377 17.6481 12.5352 17.6884 11.7587 17.5302L11.609 18.2652ZM14.3181 18.1289C15.1962 17.856 15.9942 17.3658 16.6417 16.7026L16.1051 16.1787C15.5437 16.7536 14.8534 17.1772 14.0955 17.4126L14.3181 18.1289Z" fill="#999999"/>
<path d="M9.88847 6.77113L13.2837 6.56734L11.4096 9.4058" stroke="#999999" stroke-width="0.75" stroke-linecap="round" stroke-linejoin="round"/>
</svg>
