<svg width="28" height="28" viewBox="0 0 28 28" fill="none" xmlns="http://www.w3.org/2000/svg">
<path d="M18.6667 16.444V13.2087C18.6667 13.0155 18.6667 12.9189 18.6412 12.8336C18.6186 12.7582 18.5818 12.6895 18.5334 12.6325C18.4787 12.5681 18.4037 12.5249 18.2539 12.4385L14 9.98535M6.53333 11.0618V18.3888C6.53333 18.7891 6.53333 18.9893 6.58748 19.1646C6.63535 19.3195 6.71337 19.4597 6.81555 19.5745C6.93113 19.7043 7.08892 19.7877 7.40446 19.9545L13.3778 23.1121C13.6067 23.2331 13.7211 23.2936 13.8403 23.3174C13.946 23.3386 14.054 23.3386 14.1597 23.3174C14.2789 23.2936 14.3933 23.2331 14.6222 23.1121L20.5955 19.9545C20.9111 19.7877 21.0689 19.7043 21.1844 19.5745C21.2866 19.4597 21.3646 19.3195 21.4125 19.1646C21.4667 18.9893 21.4667 18.7891 21.4667 18.3888V11.0618M4.66667 9.98535L13.6661 4.79566C13.7885 4.72505 13.8497 4.68975 13.9139 4.67586C13.9708 4.66355 14.0292 4.66355 14.0861 4.67586C14.1503 4.68975 14.2115 4.72505 14.3339 4.79566L23.3333 9.98535L14.3339 15.175C14.2115 15.2456 14.1503 15.2809 14.0861 15.2948C14.0292 15.3071 13.9708 15.3071 13.9139 15.2948C13.8497 15.2809 13.7885 15.2456 13.6661 15.175L4.66667 9.98535Z" stroke="#999999" stroke-width="1.16667" stroke-linecap="round" stroke-linejoin="round"/>
</svg>
