<svg width="24" height="24" viewBox="0 0 24 24" fill="none" xmlns="http://www.w3.org/2000/svg">
<path d="M16.8 4L20 7.2M4 20L5.02112 16.2559C5.08774 16.0116 5.12105 15.8895 5.17219 15.7756C5.21759 15.6745 5.27338 15.5783 5.33865 15.4887C5.41217 15.3878 5.50169 15.2983 5.68072 15.1193L13.9475 6.85255C14.1059 6.69414 14.1851 6.61494 14.2764 6.58526C14.3567 6.55916 14.4433 6.55916 14.5236 6.58526C14.6149 6.61494 14.6941 6.69414 14.8525 6.85255L17.1475 9.14745C17.3059 9.30586 17.3851 9.38506 17.4147 9.47639C17.4408 9.55673 17.4408 9.64327 17.4147 9.72361C17.3851 9.81494 17.3059 9.89414 17.1475 10.0525L8.88072 18.3193C8.70169 18.4983 8.61217 18.5878 8.51127 18.6613C8.42167 18.7266 8.32554 18.7824 8.22441 18.8278C8.11052 18.879 7.98838 18.9123 7.74411 18.9789L4 20Z" stroke="white" stroke-linecap="round" stroke-linejoin="round"/>
</svg>
