<svg width="28" height="28" viewBox="0 0 28 28" fill="none" xmlns="http://www.w3.org/2000/svg">
<path fill-rule="evenodd" clip-rule="evenodd" d="M11.2207 7.45383C11.9229 7.45383 12.1686 7.45946 12.3773 7.52948C12.5766 7.59631 12.7572 7.70505 12.9062 7.84698C13.061 7.99439 13.174 8.20099 13.4886 8.81275L13.8921 8.60525L13.4886 8.81276L14.1897 10.1761H5.1203V9.90383C5.1203 9.38794 5.12067 9.02908 5.14414 8.74986C5.16712 8.47632 5.20987 8.32001 5.27191 8.20164C5.40562 7.94651 5.62026 7.73672 5.88721 7.60448C6.01338 7.54198 6.17896 7.49971 6.46316 7.47713C6.7523 7.45416 7.12327 7.45383 7.65326 7.45383H11.2207ZM14.2956 8.39775L15.2101 10.1761H16.5764C16.4785 10.4668 16.4084 10.7703 16.3694 11.0835H14.9429C14.9367 11.0836 14.9305 11.0836 14.9244 11.0835H5.1203V18.9779C5.1203 19.7479 5.12067 20.2973 5.15685 20.7279C5.19256 21.1527 5.26074 21.4211 5.37364 21.6365C5.59683 22.0624 5.95425 22.411 6.39682 22.6302C6.62282 22.7422 6.90365 22.8092 7.34349 22.8441C7.78826 22.8794 8.35524 22.8798 9.1466 22.8798H18.8533C19.6446 22.8798 20.2116 22.8794 20.6564 22.8441C21.0962 22.8092 21.377 22.7422 21.603 22.6302C22.0456 22.411 22.403 22.0624 22.6262 21.6365C22.7391 21.4211 22.8073 21.1527 22.843 20.7279C22.8792 20.2973 22.8796 19.7479 22.8796 18.9779V15.9395C23.2029 15.797 23.507 15.6189 23.787 15.4102V18.9779V18.9986V18.9987C23.787 19.7434 23.787 20.3309 23.7472 20.8039C23.7066 21.2869 23.6222 21.6908 23.4299 22.0577C23.1162 22.6563 22.617 23.1406 22.0058 23.4433C21.6329 23.6281 21.2222 23.7094 20.7282 23.7487C20.2433 23.7872 19.6404 23.7872 18.8731 23.7872H18.8729H18.8533H9.1466H9.12691H9.12677C8.35943 23.7872 7.75651 23.7872 7.27163 23.7487C6.77766 23.7094 6.36698 23.6281 5.99403 23.4433C5.38288 23.1406 4.88361 22.6563 4.56992 22.0577C4.37764 21.6908 4.29322 21.2869 4.25263 20.8038C4.21288 20.3309 4.21289 19.7434 4.21289 18.9986L4.21289 18.9779V10.6298V9.90383L4.21289 9.88392C4.21289 9.39262 4.21288 8.99556 4.23992 8.67387C4.26779 8.34216 4.32677 8.05026 4.46819 7.78043C4.69241 7.3526 5.04889 7.00712 5.48442 6.79138C5.75754 6.65608 6.05297 6.59945 6.39131 6.57257C6.72061 6.54642 7.12766 6.54642 7.63426 6.54642L7.65326 6.54642H11.2207L11.2979 6.5464C11.8933 6.54619 12.2987 6.54604 12.6658 6.66915L12.5216 7.09932L12.6658 6.66915C12.9897 6.77775 13.2856 6.95531 13.5319 7.18983L13.2191 7.51841L13.5319 7.18983C13.8119 7.45645 13.995 7.81285 14.2603 8.32907L14.2603 8.32908L14.2956 8.39775Z" fill="#F3F3F3"/>
<path d="M21 9.3335V14.0002" stroke="#F3F3F3" stroke-width="0.933333" stroke-linecap="round" stroke-linejoin="round"/>
<path d="M23.333 11.6665L18.6663 11.6665" stroke="#F3F3F3" stroke-width="0.933333" stroke-linecap="round" stroke-linejoin="round"/>
</svg>
