<svg width="24" height="24" viewBox="0 0 24 24" fill="none" xmlns="http://www.w3.org/2000/svg">
<path d="M18.3 10.4C18.3 11.4056 17.9389 12.4815 17.3601 13.5522C16.7835 14.6191 16.0083 15.6484 15.2227 16.5519C14.4384 17.4539 13.6525 18.2202 13.0621 18.7614C12.7943 19.0069 12.5674 19.2055 12.4 19.3487C12.2326 19.2055 12.0057 19.0069 11.7379 18.7614C11.1475 18.2202 10.3616 17.4539 9.5773 16.5519C8.79167 15.6484 8.01651 14.6191 7.43985 13.5522C6.86109 12.4815 6.5 11.4056 6.5 10.4C6.5 8.27208 7.17637 6.81892 8.20858 5.89202C9.25006 4.95681 10.7178 4.5 12.4 4.5C14.0822 4.5 15.5499 4.95681 16.5914 5.89202C17.6236 6.81892 18.3 8.27208 18.3 10.4Z" stroke="#5D5E5F"/>
<circle cx="12.4" cy="10.4" r="2.7" stroke="#5D5E5F"/>
</svg>
