<svg width="20" height="20" viewBox="0 0 20 20" fill="none" xmlns="http://www.w3.org/2000/svg">
<path d="M15.25 8.66668C15.25 9.50469 14.9491 10.4013 14.4668 11.2935C13.9862 12.1826 13.3403 13.0404 12.6856 13.7933C12.032 14.5449 11.3771 15.1835 10.8851 15.6345C10.6619 15.8391 10.4728 16.0046 10.3333 16.1239C10.1938 16.0046 10.0047 15.8391 9.78155 15.6345C9.28956 15.1835 8.63469 14.5449 7.98109 13.7933C7.32639 13.0404 6.68043 12.1826 6.19988 11.2935C5.71757 10.4013 5.41667 9.50469 5.41667 8.66668C5.41667 6.89341 5.98031 5.68244 6.84048 4.91003C7.70838 4.13068 8.9315 3.75001 10.3333 3.75001C11.7352 3.75001 12.9583 4.13068 13.8262 4.91003C14.6864 5.68244 15.25 6.89341 15.25 8.66668Z" stroke="#CCCCCC" stroke-width="0.833333"/>
<circle cx="10.3333" cy="8.66664" r="2.25" stroke="#CCCCCC" stroke-width="0.833333"/>
</svg>
