<svg width="28" height="28" viewBox="0 0 28 28" fill="none" xmlns="http://www.w3.org/2000/svg">
<rect width="28" height="28" fill="#17181A"/>
<path d="M20.408 10.889C20.408 9.23873 19.7329 7.65609 18.5311 6.48919C17.3294 5.3223 15.6995 4.66675 14 4.66675C12.3004 4.66675 10.6705 5.3223 9.4688 6.48919C8.26706 7.65609 7.59193 9.23873 7.59193 10.889C7.59193 14.0936 6.75939 16.2877 5.82936 17.739C5.04487 18.9632 4.65263 19.5753 4.66701 19.7461C4.68293 19.9351 4.72418 20.0072 4.88109 20.1202C5.0228 20.2223 5.6616 20.2223 6.93922 20.2223H21.0607C22.3383 20.2223 22.9771 20.2223 23.1188 20.1202C23.2757 20.0072 23.317 19.9351 23.3329 19.7461C23.3473 19.5753 22.9551 18.9632 22.1706 17.739C21.2405 16.2877 20.408 14.0936 20.408 10.889Z" stroke="#8A8B8C" stroke-linecap="round" stroke-linejoin="round"/>
<path d="M17.2039 20.2224C17.2039 21.9406 15.7694 23.3335 13.9999 23.3335C12.2304 23.3335 10.7959 21.9406 10.7959 20.2224" stroke="#8A8B8C"/>
</svg>
