<svg width="24" height="24" viewBox="0 0 24 24" fill="none" xmlns="http://www.w3.org/2000/svg">
<path d="M17.4926 9.33333C17.4926 7.91885 16.9139 6.56229 15.8839 5.5621C14.8538 4.5619 13.4567 4 12 4C10.5433 4 9.14621 4.5619 8.11615 5.5621C7.08608 6.56229 6.5074 7.91885 6.5074 9.33333C6.5074 12.0802 5.79379 13.9609 4.99663 15.2048C4.32421 16.2541 3.988 16.7788 4.00033 16.9251C4.01398 17.0872 4.04933 17.149 4.18383 17.2458C4.30529 17.3333 4.85284 17.3333 5.94794 17.3333H18.0521C19.1472 17.3333 19.6947 17.3333 19.8162 17.2458C19.9507 17.149 19.986 17.0872 19.9997 16.9251C20.012 16.7788 19.6758 16.2541 19.0034 15.2048C18.2062 13.9609 17.4926 12.0802 17.4926 9.33333Z" fill="#6E78D1"/>
<path d="M14.7463 17.3333C14.7463 18.8061 13.5167 20 12 20C10.4832 20 9.25366 18.8061 9.25366 17.3333" stroke="#6E78D1"/>
<circle cx="12" cy="17" r="3" fill="#6E78D1"/>
</svg>
