<svg width="16" height="16" viewBox="0 0 16 16" fill="none" xmlns="http://www.w3.org/2000/svg">
<path d="M2.66663 6.2467C2.66663 6.05003 2.66663 5.95169 2.67442 5.86887C2.74961 5.07002 3.34997 4.43807 4.10887 4.35892C4.18756 4.35071 4.28602 4.35071 4.48294 4.35071C4.55881 4.35071 4.59675 4.35071 4.62896 4.34866C5.04028 4.32244 5.40047 4.04917 5.55417 3.64671C5.56621 3.6152 5.57746 3.57967 5.59996 3.50861C5.62246 3.43755 5.63371 3.40202 5.64575 3.3705C5.79945 2.96805 6.15963 2.69478 6.57095 2.66856C6.60317 2.6665 6.63874 2.6665 6.7099 2.6665H9.29002C9.36117 2.6665 9.39675 2.6665 9.42896 2.66856C9.84028 2.69478 10.2005 2.96805 10.3542 3.3705C10.3662 3.40202 10.3775 3.43755 10.4 3.50861C10.4225 3.57967 10.4337 3.6152 10.4457 3.64671C10.5995 4.04917 10.9596 4.32244 11.371 4.34866C11.4032 4.35071 11.4411 4.35071 11.517 4.35071C11.7139 4.35071 11.8124 4.35071 11.891 4.35892C12.6499 4.43807 13.2503 5.07002 13.3255 5.86887C13.3333 5.95169 13.3333 6.05003 13.3333 6.2467V10.6384C13.3333 11.5817 13.3333 12.0533 13.1589 12.4136C13.0055 12.7305 12.7607 12.9881 12.4597 13.1496C12.1174 13.3332 11.6694 13.3332 10.7733 13.3332H5.22663C4.33054 13.3332 3.8825 13.3332 3.54024 13.1496C3.23918 12.9881 2.99441 12.7305 2.84102 12.4136C2.66663 12.0533 2.66663 11.5817 2.66663 10.6384V6.2467Z" stroke="#8A8B8C" stroke-linecap="round" stroke-linejoin="round"/>
<path d="M7.99996 10.8069C9.17817 10.8069 10.1333 9.80146 10.1333 8.56124C10.1333 7.32102 9.17817 6.31563 7.99996 6.31563C6.82175 6.31563 5.86663 7.32102 5.86663 8.56124C5.86663 9.80146 6.82175 10.8069 7.99996 10.8069Z" stroke="#8A8B8C" stroke-linecap="round" stroke-linejoin="round"/>
</svg>
