<svg width="28" height="28" viewBox="0 0 28 28" fill="none" xmlns="http://www.w3.org/2000/svg">
<rect width="28" height="28" fill="#17181A"/>
<path d="M11.2778 8.40008V12.6012C11.2778 13.1154 11.2778 13.3725 11.2155 13.6107C11.1603 13.8218 11.0695 14.0213 10.9471 14.2001C10.8091 14.4019 10.6171 14.5664 10.233 14.8956L6.87817 17.7712C6.49413 18.1004 6.3021 18.265 6.16406 18.4667C6.04174 18.6455 5.95091 18.845 5.89569 19.0561C5.83337 19.2943 5.83337 19.5514 5.83337 20.0656V20.3467C5.83337 21.3922 5.83337 21.9149 6.03118 22.3142C6.20517 22.6654 6.4828 22.951 6.82428 23.13C7.21249 23.3334 7.72069 23.3334 8.73708 23.3334H19.263C20.2794 23.3334 20.7876 23.3334 21.1758 23.13C21.5173 22.951 21.7949 22.6654 21.9689 22.3142C22.1667 21.9149 22.1667 21.3922 22.1667 20.3467V20.0656C22.1667 19.5514 22.1667 19.2943 22.1044 19.0561C22.0492 18.845 21.9583 18.6455 21.836 18.4667C21.698 18.265 21.506 18.1004 21.1219 17.7712L17.7671 14.8956C17.383 14.5664 17.191 14.4019 17.0529 14.2001C16.9306 14.0213 16.8398 13.8218 16.7846 13.6107C16.7223 13.3725 16.7223 13.1154 16.7223 12.6012V8.40008M10.6426 8.40008H17.3574C17.6115 8.40008 17.7386 8.40008 17.8356 8.34922C17.921 8.30448 17.9904 8.23309 18.0339 8.14528C18.0834 8.04545 18.0834 7.91477 18.0834 7.65341V5.41341C18.0834 5.15206 18.0834 5.02138 18.0339 4.92155C17.9904 4.83374 17.921 4.76235 17.8356 4.71761C17.7386 4.66675 17.6115 4.66675 17.3574 4.66675H10.6426C10.3885 4.66675 10.2615 4.66675 10.1644 4.71761C10.0791 4.76235 10.0097 4.83374 9.96616 4.92155C9.91671 5.02138 9.91671 5.15206 9.91671 5.41341V7.65341C9.91671 7.91477 9.91671 8.04545 9.96616 8.14528C10.0097 8.23309 10.0791 8.30448 10.1644 8.34922C10.2615 8.40008 10.3885 8.40008 10.6426 8.40008ZM8.10189 18.6667H19.8982C20.3198 18.6667 20.5306 18.6667 20.7059 18.7026C21.4259 18.8499 21.9886 19.4288 22.1318 20.1692C22.1667 20.3496 22.1667 20.5664 22.1667 21.0001C22.1667 21.4338 22.1667 21.6506 22.1318 21.8309C21.9886 22.5714 21.4259 23.1503 20.7059 23.2975C20.5306 23.3334 20.3198 23.3334 19.8982 23.3334H8.10189C7.68026 23.3334 7.46945 23.3334 7.29414 23.2975C6.57422 23.1503 6.01145 22.5714 5.86825 21.8309C5.83337 21.6506 5.83337 21.4338 5.83337 21.0001C5.83337 20.5664 5.83337 20.3496 5.86825 20.1692C6.01145 19.4288 6.57422 18.8499 7.29414 18.7026C7.46945 18.6667 7.68026 18.6667 8.10189 18.6667Z" stroke="#8A8B8C" stroke-linecap="round" stroke-linejoin="round"/>
</svg>
