<svg width="28" height="28" viewBox="0 0 28 28" fill="none" xmlns="http://www.w3.org/2000/svg">
<rect width="28" height="28" fill="#17181A"/>
<path d="M4.66663 12.9353C4.66663 12.3629 4.66663 12.0768 4.7434 11.8133C4.8114 11.5798 4.92315 11.3603 5.07317 11.1654C5.24253 10.9454 5.47761 10.7697 5.94777 10.4183L12.9813 5.16189C13.3456 4.88961 13.5278 4.75347 13.7289 4.70114C13.9064 4.65496 14.0935 4.65496 14.271 4.70114C14.4721 4.75347 14.6543 4.88961 15.0186 5.16189L22.0521 10.4183C22.5223 10.7697 22.7574 10.9454 22.9267 11.1654C23.0768 11.3603 23.1885 11.5798 23.2565 11.8133C23.3333 12.0768 23.3333 12.3629 23.3333 12.9353V20.1445C23.3333 21.2607 23.3333 21.8187 23.1072 22.245C22.9084 22.62 22.5911 22.9249 22.2008 23.116C21.7572 23.3332 21.1764 23.3332 20.0148 23.3332H7.98514C6.82355 23.3332 6.24276 23.3332 5.79909 23.116C5.40883 22.9249 5.09154 22.62 4.89269 22.245C4.66663 21.8187 4.66663 21.2607 4.66663 20.1445V12.9353Z" stroke="#8A8B8C" stroke-linecap="round" stroke-linejoin="round"/>
</svg>
