<svg width="20" height="20" viewBox="0 0 20 20" fill="none" xmlns="http://www.w3.org/2000/svg">
<path d="M15.25 8.66683C15.25 9.50484 14.9491 10.4014 14.4668 11.2937C13.9862 12.1827 13.3403 13.0405 12.6856 13.7934C12.032 14.5451 11.3771 15.1837 10.8851 15.6347C10.6619 15.8393 10.4728 16.0047 10.3333 16.124C10.1938 16.0047 10.0047 15.8393 9.78155 15.6347C9.28956 15.1837 8.63469 14.5451 7.98109 13.7934C7.32639 13.0405 6.68043 12.1827 6.19988 11.2937C5.71757 10.4014 5.41667 9.50484 5.41667 8.66683C5.41667 6.89356 5.98031 5.68259 6.84048 4.91018C7.70838 4.13084 8.9315 3.75016 10.3333 3.75016C11.7352 3.75016 12.9583 4.13084 13.8262 4.91018C14.6864 5.68259 15.25 6.89356 15.25 8.66683Z" stroke="#747476" stroke-width="0.833333"/>
<circle cx="10.3333" cy="8.66667" r="2.25" stroke="#747476" stroke-width="0.833333"/>
</svg>
