<svg viewBox="0 0 92.17 26.58" xmlns="http://www.w3.org/2000/svg" xmlns:xlink="http://www.w3.org/1999/xlink"><linearGradient id="a" gradientUnits="userSpaceOnUse" x1="40.54" x2="63.75" y1="24.54" y2="1.34"><stop offset="0" stop-color="#5541d6"/><stop offset="1" stop-color="#6e78d1"/></linearGradient><linearGradient id="b" x1="67.99" x2="89.93" xlink:href="#a" y1="23.46" y2="1.51"/><linearGradient id="c" x1="10.14" x2="26.43" xlink:href="#a" y1="18.43" y2="18.43"/><linearGradient id="d" x1=".04" x2="16.33" xlink:href="#a" y1="18.43" y2="18.43"/><linearGradient id="e" x1=".92" x2="5.34" xlink:href="#a" y1="5.34" y2=".92"/><linearGradient id="f" gradientUnits="userSpaceOnUse" x1="21.09" x2="25.51" y1=".92" y2="5.34"><stop offset="0" stop-color="#6e78d1"/><stop offset="1" stop-color="#5541d6"/></linearGradient><path d="m56.7 15.7h-16.75v-14.85h14.86v3.5h-10.76v2.13h10.5v3.44h-10.5v2.28h12.66v3.5zm6.52 10.44h-21.08v-8.36h4.09v4.75h16.99v3.62zm-.62-6.61h-4.09v-19.33h4.09z" fill="url(#a)"/><path d="m82.86 22.23h-16.1v-21.09h14.18v3.62h-10.08v4.89h9.82v3.56h-9.82v5.4h12.01v3.62zm5.75 4.15h-4.09v-26.18h4.09v9.58h3.56v3.91h-3.56z" fill="url(#b)"/><path d="m56.7 15.7h-16.75v-14.85h14.86v3.5h-10.76v2.13h10.5v3.44h-10.5v2.28h12.66v3.5zm6.52 10.44h-21.08v-8.36h4.09v4.75h16.99v3.62zm-.62-6.61h-4.09v-19.33h4.09z" fill="url(#a)"/><path d="m82.86 22.23h-16.1v-21.09h14.18v3.62h-10.08v4.89h9.82v3.56h-9.82v5.4h12.01v3.62zm5.75 4.15h-4.09v-26.18h4.09v9.58h3.56v3.91h-3.56z" fill="url(#b)"/><path d="m13.23 26.58c-1.71 0-3.1-1.39-3.1-3.1s1.39-3.1 3.1-3.1c3.86 0 7.01-3.14 7.01-7.01 0-1.71 1.39-3.1 3.1-3.1s3.1 1.39 3.1 3.1c0 7.28-5.92 13.2-13.2 13.2z" fill="url(#c)"/><path d="m13.23 26.58c-7.27 0-13.19-5.92-13.19-13.2 0-1.71 1.39-3.1 3.1-3.1s3.1 1.39 3.1 3.1c0 3.86 3.14 7.01 7.01 7.01 1.71 0 3.1 1.39 3.1 3.1s-1.39 3.1-3.1 3.1z" fill="url(#d)"/><circle cx="3.13" cy="3.13" fill="url(#e)" r="3.13"/><circle cx="23.3" cy="3.13" fill="url(#f)" r="3.13"/></svg>