<svg width="20" height="20" viewBox="0 0 20 20" fill="none" xmlns="http://www.w3.org/2000/svg">
<rect x="0.416667" y="0.416667" width="19.1667" height="19.1667" fill="#232426"/>
<path d="M8.05293 5.5338L8.29304 5.97237L8.05293 5.5338ZM5.97334 7.46436L6.39211 7.73755L5.97334 7.46436ZM5.02781 10.1711L5.52552 10.2189L5.02781 10.1711ZM5.43963 13.0147L4.9761 13.2022L4.9761 13.2022L5.43963 13.0147ZM7.11155 15.3237L6.78982 15.7065L6.78982 15.7065L7.11155 15.3237ZM9.64873 16.5528L9.74855 16.0629L9.64873 16.5528ZM12.452 16.4118L12.3036 15.9343L12.452 16.4118ZM15.2171 15.2832C15.41 15.0856 15.4062 14.769 15.2086 14.5761C15.011 14.3832 14.6945 14.387 14.5016 14.5846L15.2171 15.2832ZM10.7755 4.33529C9.74129 4.33529 8.72365 4.59657 7.81282 5.09523L8.29304 5.97237C9.05748 5.55386 9.91009 5.33529 10.7755 5.33529L10.7755 4.33529ZM7.81282 5.09523C6.90207 5.59385 6.12673 6.31411 5.55457 7.19118L6.39211 7.73755C6.8753 6.99687 7.52853 6.39093 8.29304 5.97237L7.81282 5.09523ZM5.55457 7.19118C4.98246 8.06819 4.63087 9.07528 4.53011 10.1232L5.52552 10.2189C5.61094 9.33057 5.90889 8.4783 6.39211 7.73755L5.55457 7.19118ZM4.53011 10.1232C4.42934 11.1711 4.58239 12.2286 4.9761 13.2022L5.90316 12.8272C5.56995 12.0033 5.44009 11.1073 5.52552 10.2189L4.53011 10.1232ZM4.9761 13.2022C5.36983 14.1758 5.99243 15.0362 6.78982 15.7065L7.43328 14.941C6.76229 14.377 6.23636 13.6512 5.90316 12.8272L4.9761 13.2022ZM6.78982 15.7065C7.58729 16.3768 8.53487 16.8362 9.54891 17.0428L9.74855 16.0629C8.89953 15.8899 8.1042 15.5049 7.43328 14.941L6.78982 15.7065ZM9.54891 17.0428C10.563 17.2494 11.6112 17.1966 12.6004 16.8893L12.3036 15.9343C11.475 16.1918 10.5975 16.2359 9.74855 16.0629L9.54891 17.0428ZM12.6004 16.8893C13.5894 16.5819 14.4881 16.0299 15.2171 15.2832L14.5016 14.5846C13.8874 15.2136 13.1323 15.6768 12.3036 15.9343L12.6004 16.8893Z" fill="#A2A3A3"/>
<path d="M7.65388 4.19014L11.4264 3.96371L9.34403 7.11756" stroke="#A2A3A3" stroke-linecap="round" stroke-linejoin="round"/>
<rect x="0.416667" y="0.416667" width="19.1667" height="19.1667" stroke="#232426" stroke-width="0.833333"/>
</svg>
