<svg width="28" height="28" viewBox="0 0 28 28" fill="none" xmlns="http://www.w3.org/2000/svg">
<path d="M18.6666 16.4442V13.2088C18.6666 13.0156 18.6666 12.919 18.6411 12.8337C18.6186 12.7583 18.5818 12.6896 18.5334 12.6326C18.4786 12.5682 18.4037 12.525 18.2539 12.4386L14 9.98547M6.53329 11.0619V18.3889C6.53329 18.7892 6.53329 18.9894 6.58744 19.1647C6.63531 19.3196 6.71333 19.4598 6.81551 19.5746C6.93109 19.7044 7.08888 19.7878 7.40442 19.9546L13.3778 23.1122C13.6066 23.2332 13.7211 23.2937 13.8403 23.3175C13.9459 23.3387 14.054 23.3387 14.1596 23.3175C14.2788 23.2937 14.3933 23.2332 14.6222 23.1122L20.5955 19.9546C20.911 19.7878 21.0688 19.7044 21.1844 19.5746C21.2866 19.4598 21.3646 19.3196 21.4125 19.1647C21.4666 18.9894 21.4666 18.7892 21.4666 18.3889V11.0619M4.66663 9.98547L13.666 4.79578C13.7885 4.72517 13.8497 4.68987 13.9139 4.67598C13.9708 4.66367 14.0291 4.66367 14.086 4.67598C14.1502 4.68987 14.2114 4.72517 14.3339 4.79578L23.3333 9.98547L14.3339 15.1752C14.2114 15.2458 14.1502 15.2811 14.086 15.295C14.0291 15.3073 13.9708 15.3073 13.9139 15.295C13.8497 15.2811 13.7885 15.2458 13.666 15.1752L4.66663 9.98547Z" stroke="#8A8B8C" stroke-width="1.16667" stroke-linecap="round" stroke-linejoin="round"/>
</svg>
