<svg width="28" height="28" viewBox="0 0 28 28" fill="none" xmlns="http://www.w3.org/2000/svg">
<rect width="28" height="28" fill="#17181A"/>
<path d="M11.2778 8.39984V12.601C11.2778 13.1152 11.2778 13.3723 11.2155 13.6105C11.1603 13.8216 11.0695 14.0211 10.9471 14.1998C10.8091 14.4016 10.6171 14.5662 10.233 14.8954L6.87817 17.771C6.49413 18.1001 6.3021 18.2647 6.16406 18.4665C6.04174 18.6453 5.95091 18.8447 5.89569 19.0558C5.83337 19.2941 5.83337 19.5512 5.83337 20.0654V20.3465C5.83337 21.3919 5.83337 21.9147 6.03118 22.314C6.20517 22.6652 6.4828 22.9508 6.82428 23.1297C7.21249 23.3332 7.72069 23.3332 8.73708 23.3332H19.263C20.2794 23.3332 20.7876 23.3332 21.1758 23.1297C21.5173 22.9508 21.7949 22.6652 21.9689 22.314C22.1667 21.9147 22.1667 21.3919 22.1667 20.3465V20.0654C22.1667 19.5512 22.1667 19.2941 22.1044 19.0558C22.0492 18.8447 21.9583 18.6453 21.836 18.4665C21.698 18.2647 21.506 18.1001 21.1219 17.771L17.7671 14.8954C17.383 14.5662 17.191 14.4016 17.0529 14.1998C16.9306 14.0211 16.8398 13.8216 16.7846 13.6105C16.7223 13.3723 16.7223 13.1152 16.7223 12.601V8.39984M10.6426 8.39984H17.3574C17.6115 8.39984 17.7386 8.39984 17.8356 8.34897C17.921 8.30423 17.9904 8.23284 18.0339 8.14503C18.0834 8.04521 18.0834 7.91453 18.0834 7.65317V5.41317C18.0834 5.15181 18.0834 5.02113 18.0339 4.92131C17.9904 4.8335 17.921 4.76211 17.8356 4.71737C17.7386 4.6665 17.6115 4.6665 17.3574 4.6665H10.6426C10.3885 4.6665 10.2615 4.6665 10.1644 4.71737C10.0791 4.76211 10.0097 4.8335 9.96616 4.92131C9.91671 5.02113 9.91671 5.15181 9.91671 5.41317V7.65317C9.91671 7.91453 9.91671 8.04521 9.96616 8.14503C10.0097 8.23284 10.0791 8.30423 10.1644 8.34897C10.2615 8.39984 10.3885 8.39984 10.6426 8.39984ZM8.10189 18.6665H19.8982C20.3198 18.6665 20.5306 18.6665 20.7059 18.7024C21.4259 18.8497 21.9886 19.4285 22.1318 20.169C22.1667 20.3493 22.1667 20.5662 22.1667 20.9998C22.1667 21.4335 22.1667 21.6504 22.1318 21.8307C21.9886 22.5712 21.4259 23.15 20.7059 23.2973C20.5306 23.3332 20.3198 23.3332 19.8982 23.3332H8.10189C7.68026 23.3332 7.46945 23.3332 7.29414 23.2973C6.57422 23.15 6.01145 22.5712 5.86825 21.8307C5.83337 21.6504 5.83337 21.4335 5.83337 20.9998C5.83337 20.5662 5.83337 20.3493 5.86825 20.169C6.01145 19.4285 6.57422 18.8497 7.29414 18.7024C7.46945 18.6665 7.68026 18.6665 8.10189 18.6665Z" stroke="#F3F3F3" stroke-linecap="round" stroke-linejoin="round"/>
</svg>
