<svg width="28" height="28" viewBox="0 0 28 28" fill="none" xmlns="http://www.w3.org/2000/svg">
<rect width="28" height="28" fill="#17181A"/>
<path d="M4.66663 12.9355C4.66663 12.3632 4.66663 12.077 4.7434 11.8135C4.8114 11.5801 4.92315 11.3605 5.07317 11.1656C5.24253 10.9456 5.47761 10.7699 5.94777 10.4185L12.9813 5.16214C13.3456 4.88985 13.5278 4.75371 13.7289 4.70138C13.9064 4.6552 14.0935 4.6552 14.271 4.70138C14.4721 4.75371 14.6543 4.88985 15.0186 5.16214L22.0521 10.4185C22.5223 10.7699 22.7574 10.9456 22.9267 11.1656C23.0768 11.3605 23.1885 11.5801 23.2565 11.8135C23.3333 12.077 23.3333 12.3632 23.3333 12.9355V20.1448C23.3333 21.2609 23.3333 21.819 23.1072 22.2453C22.9084 22.6203 22.5911 22.9251 22.2008 23.1162C21.7572 23.3334 21.1764 23.3334 20.0148 23.3334H7.98514C6.82355 23.3334 6.24276 23.3334 5.79909 23.1162C5.40883 22.9251 5.09154 22.6203 4.89269 22.2453C4.66663 21.819 4.66663 21.2609 4.66663 20.1448V12.9355Z" stroke="#F3F3F3" stroke-linecap="round" stroke-linejoin="round"/>
</svg>
