<svg width="28" height="28" viewBox="0 0 28 28" fill="none" xmlns="http://www.w3.org/2000/svg">
<path d="M18.6666 16.4444V13.2091C18.6666 13.0159 18.6666 12.9193 18.6411 12.834C18.6186 12.7586 18.5818 12.6899 18.5334 12.6329C18.4786 12.5684 18.4037 12.5252 18.2539 12.4388L14 9.98571M6.53329 11.0622V18.3891C6.53329 18.7895 6.53329 18.9897 6.58744 19.1649C6.63531 19.3199 6.71333 19.4601 6.81551 19.5748C6.93109 19.7046 7.08888 19.788 7.40442 19.9548L13.3778 23.1124C13.6066 23.2334 13.7211 23.2939 13.8403 23.3178C13.9459 23.3389 14.054 23.3389 14.1596 23.3178C14.2788 23.2939 14.3933 23.2334 14.6222 23.1124L20.5955 19.9548C20.911 19.788 21.0688 19.7046 21.1844 19.5748C21.2866 19.4601 21.3646 19.3199 21.4125 19.1649C21.4666 18.9897 21.4666 18.7895 21.4666 18.3891V11.0622M4.66663 9.98571L13.666 4.79602C13.7885 4.72542 13.8497 4.69012 13.9139 4.67622C13.9708 4.66392 14.0291 4.66392 14.086 4.67622C14.1502 4.69012 14.2114 4.72542 14.3339 4.79602L23.3333 9.98571L14.3339 15.1754C14.2114 15.246 14.1502 15.2813 14.086 15.2952C14.0291 15.3075 13.9708 15.3075 13.9139 15.2952C13.8497 15.2813 13.7885 15.246 13.666 15.1754L4.66663 9.98571Z" stroke="#F3F3F3" stroke-width="1.16667" stroke-linecap="round" stroke-linejoin="round"/>
</svg>
