<svg width="28" height="28" viewBox="0 0 28 28" fill="none" xmlns="http://www.w3.org/2000/svg">
<rect width="28" height="28" fill="#17181A"/>
<path d="M20.408 10.8892C20.408 9.23898 19.7329 7.65633 18.5311 6.48944C17.3294 5.32255 15.6995 4.66699 14 4.66699C12.3004 4.66699 10.6705 5.32255 9.4688 6.48944C8.26706 7.65633 7.59193 9.23898 7.59193 10.8892C7.59193 14.0939 6.75939 16.288 5.82936 17.7393C5.04487 18.9635 4.65263 19.5755 4.66701 19.7463C4.68293 19.9354 4.72418 20.0075 4.88109 20.1205C5.0228 20.2225 5.6616 20.2225 6.93922 20.2225H21.0607C22.3383 20.2225 22.9771 20.2225 23.1188 20.1205C23.2757 20.0075 23.317 19.9354 23.3329 19.7463C23.3473 19.5755 22.9551 18.9635 22.1706 17.7393C21.2405 16.288 20.408 14.0939 20.408 10.8892Z" stroke="#F3F3F3" stroke-linecap="round" stroke-linejoin="round"/>
<path d="M17.2039 20.2229C17.2039 21.9411 15.7694 23.334 13.9999 23.334C12.2304 23.334 10.7959 21.9411 10.7959 20.2229" stroke="#F3F3F3"/>
</svg>
