<svg width="24" height="24" viewBox="0 0 24 24" fill="none" xmlns="http://www.w3.org/2000/svg">
<path d="M11.5434 6.54995C11.6901 6.23819 11.7634 6.0823 11.863 6.0325C11.9497 5.98917 12.0503 5.98917 12.137 6.0325C12.2366 6.0823 12.3099 6.23819 12.4566 6.54995L13.8486 9.50774C13.8919 9.59978 13.9135 9.6458 13.9452 9.68153C13.9732 9.71316 14.0068 9.7388 14.0442 9.75701C14.0863 9.77757 14.1347 9.78499 14.2316 9.79984L17.3451 10.2772C17.673 10.3274 17.8369 10.3526 17.9128 10.4366C17.9788 10.5097 18.0098 10.6101 17.9973 10.7099C17.9828 10.8246 17.8641 10.9458 17.6268 11.1883L15.3746 13.4892C15.3044 13.5609 15.2693 13.5968 15.2467 13.6394C15.2266 13.6772 15.2137 13.7187 15.2088 13.7617C15.2032 13.8101 15.2115 13.8608 15.228 13.9621L15.7594 17.2119C15.8155 17.5547 15.8435 17.7261 15.7908 17.8278C15.745 17.9163 15.6636 17.9784 15.5692 17.9967C15.4607 18.0178 15.3139 17.9369 15.0205 17.775L12.237 16.2396C12.1503 16.1918 12.1069 16.1679 12.0613 16.1585C12.0208 16.1501 11.9792 16.1501 11.9387 16.1585C11.8931 16.1679 11.8497 16.1918 11.763 16.2396L8.97951 17.775C8.68605 17.9369 8.53932 18.0178 8.43083 17.9967C8.33644 17.9784 8.25498 17.9163 8.20916 17.8278C8.1565 17.7261 8.18452 17.5547 8.24057 17.2119L8.77197 13.9621C8.78853 13.8608 8.79682 13.8101 8.79121 13.7617C8.78625 13.7187 8.77338 13.6772 8.75333 13.6394C8.73068 13.5968 8.69558 13.5609 8.62537 13.4892L6.37324 11.1883C6.13587 10.9458 6.01718 10.8246 6.00274 10.7099C5.99018 10.6101 6.02122 10.5097 6.08723 10.4366C6.16309 10.3526 6.32703 10.3274 6.6549 10.2772L9.76844 9.79984C9.86527 9.78499 9.91368 9.77757 9.95584 9.75701C9.99318 9.7388 10.0268 9.71316 10.0548 9.68153C10.0865 9.6458 10.1081 9.59978 10.1514 9.50774L11.5434 6.54995Z" fill="#5D5E5F"/>
</svg>
