<svg width="28" height="28" viewBox="0 0 28 28" fill="none" xmlns="http://www.w3.org/2000/svg">
<path d="M19.6001 4.6665L23.3334 8.39984M4.66675 23.3332L5.85806 18.965C5.93578 18.6801 5.97464 18.5376 6.0343 18.4047C6.08727 18.2867 6.15235 18.1746 6.22851 18.07C6.31428 17.9523 6.41872 17.8479 6.62759 17.639L16.2721 7.99448C16.4569 7.80967 16.5493 7.71727 16.6559 7.68264C16.7496 7.65219 16.8506 7.65219 16.9443 7.68264C17.0508 7.71727 17.1432 7.80967 17.3281 7.99448L20.0054 10.6719C20.1902 10.8567 20.2827 10.9491 20.3173 11.0556C20.3477 11.1494 20.3477 11.2503 20.3173 11.344C20.2827 11.4506 20.1902 11.543 20.0054 11.7278L10.3609 21.3723C10.1521 21.5812 10.0476 21.6856 9.92989 21.7714C9.82537 21.8476 9.71321 21.9127 9.59523 21.9656C9.46235 22.0253 9.31986 22.0641 9.03488 22.1419L4.66675 23.3332Z" stroke="#F3F3F3" stroke-width="1.01042" stroke-linecap="round" stroke-linejoin="round"/>
</svg>
